<svg xmlns="http://www.w3.org/2000/svg" width="17" height="16" viewBox="0 0 17 16" fill="none">
<path d="M6.79793 1.20133C6.91752 0.988185 7.09173 0.810744 7.30263 0.687248C7.51354 0.563752 7.75353 0.498657 7.99793 0.498657C8.24233 0.498657 8.48232 0.563752 8.69322 0.687248C8.90413 0.810744 9.07833 0.988185 9.19793 1.20133L15.8039 13.3533C15.9305 13.5677 15.9988 13.8115 16.0018 14.0604C16.0047 14.3094 15.9424 14.5547 15.821 14.7721C15.6996 14.9894 15.5233 15.1711 15.3098 15.2991C15.0962 15.427 14.8528 15.4968 14.6039 15.5013H1.39793C1.14901 15.4968 0.905645 15.427 0.69209 15.2991C0.478536 15.1711 0.30226 14.9894 0.180842 14.7721C0.0594231 14.5547 -0.00289465 14.3094 0.000103277 14.0604C0.00310121 13.8115 0.0713101 13.5677 0.197927 13.3533L6.79793 1.20133Z" fill="#ED145B"/>
<path d="M9 5.50232C9 4.95003 8.55228 4.50232 8 4.50232C7.44772 4.50232 7 4.95003 7 5.50232V9.50232C7 10.0546 7.44772 10.5023 8 10.5023C8.55228 10.5023 9 10.0546 9 9.50232V5.50232Z" fill="white"/>
<path d="M9 12.8343C9 12.282 8.55228 11.8343 8 11.8343C7.44772 11.8343 7 12.282 7 12.8343C7 13.3866 7.44772 13.8343 8 13.8343C8.55228 13.8343 9 13.3866 9 12.8343Z" fill="white"/>
</svg>