<svg xmlns="http://www.w3.org/2000/svg" width="22" height="22" viewBox="0 0 22 22" fill="none">
<path fill-rule="evenodd" clip-rule="evenodd" d="M13.5006 17.1697V10.0525C13.5006 9.69854 13.36 9.35904 13.1096 9.10881L11.2238 7.22303C10.9736 6.97263 10.6341 6.83203 10.2801 6.83203H5.66397C4.92728 6.83203 4.33008 7.42923 4.33008 8.16592V17.1697C4.33008 17.9064 4.92728 18.5036 5.66397 18.5036H12.1667C12.9034 18.5036 13.5006 17.9064 13.5006 17.1697V17.1697Z" stroke="#1B325A" stroke-width="1.5" stroke-linecap="round" stroke-linejoin="round"/>
<path d="M13.5021 15.1686H16.3366C17.0733 15.1686 17.6705 14.5714 17.6705 13.8347V5.16443C17.6705 4.24357 16.924 3.49707 16.0031 3.49707H9.83389C9.0972 3.49707 8.5 4.09427 8.5 4.83096V6.83179" stroke="#1B325A" stroke-width="1.5" stroke-linecap="round" stroke-linejoin="round"/>
<path d="M13.5007 10.1668H10.833C10.4646 10.1668 10.166 9.86815 10.166 9.49981V6.83203" stroke="#1B325A" stroke-width="1.5" stroke-linecap="round" stroke-linejoin="round"/>
</svg>