<svg width="26" height="26" viewBox="0 0 26 26" fill="none" xmlns="http://www.w3.org/2000/svg">
<path d="M17.0017 13H11.7495" stroke="#1B325A" stroke-width="1.5" stroke-linecap="round" stroke-linejoin="round"/>
<path d="M17.0017 16.5014H11.7495" stroke="#1B325A" stroke-width="1.5" stroke-linecap="round" stroke-linejoin="round"/>
<path d="M17.0017 9.4985H11.7495" stroke="#1B325A" stroke-width="1.5" stroke-linecap="round" stroke-linejoin="round"/>
<rect x="3.99658" y="3.99622" width="18.0075" height="18.0075" rx="5" stroke="#1B325A" stroke-width="1.5" stroke-linecap="round" stroke-linejoin="round"/>
<path d="M8.99823 12.8769C8.92972 12.8774 8.87463 12.9334 8.87518 13.0019C8.87574 13.0704 8.93172 13.1255 9.00023 13.125C9.06874 13.1244 9.12383 13.0685 9.12328 12.9999C9.12017 12.9325 9.06567 12.8789 8.99823 12.8769" stroke="#1B325A" stroke-width="1.5" stroke-linecap="round" stroke-linejoin="round"/>
<path d="M8.99867 16.3784C8.9307 16.38 8.87673 16.4361 8.87763 16.504C8.87854 16.572 8.934 16.6266 9.00199 16.6264C9.06997 16.6263 9.12515 16.5714 9.12572 16.5034C9.12359 16.4345 9.06763 16.3794 8.99867 16.3784" stroke="#1B325A" stroke-width="1.5" stroke-linecap="round" stroke-linejoin="round"/>
<path d="M8.99867 9.37544C8.9307 9.37709 8.87673 9.43314 8.87763 9.50112C8.87854 9.5691 8.934 9.62368 9.00199 9.62351C9.06997 9.62334 9.12515 9.56848 9.12572 9.50049C9.12359 9.43156 9.06763 9.37648 8.99867 9.37544" stroke="#1B325A" stroke-width="1.5" stroke-linecap="round" stroke-linejoin="round"/>
</svg>
