<svg width="24" height="24" viewBox="0 0 24 24" fill="none" xmlns="http://www.w3.org/2000/svg">
<path d="M7.625 10.25V13.75C7.625 14.2141 7.80937 14.6592 8.13756 14.9874C8.46575 15.3156 8.91087 15.5 9.375 15.5H14.625C15.0891 15.5 15.5342 15.3156 15.8624 14.9874C16.1906 14.6592 16.375 14.2141 16.375 13.75V10.25C16.375 9.78587 16.1906 9.34075 15.8624 9.01256C15.5342 8.68437 15.0891 8.5 14.625 8.5H9.375C8.91087 8.5 8.46575 8.68437 8.13756 9.01256C7.80937 9.34075 7.625 9.78587 7.625 10.25Z" stroke="#1B325A" stroke-width="1.5" stroke-linecap="round" stroke-linejoin="round"/>
<path d="M10.0107 11L11.4984 11.8624C11.6541 11.9525 11.8308 12 12.0108 12C12.1907 12 12.3675 11.9525 12.5232 11.8624L14.0107 11" stroke="#1B325A" stroke-width="1.5" stroke-linecap="round" stroke-linejoin="round"/>
<path d="M4.62912 17.1636C3.33728 15.3198 2.7834 13.0588 3.07676 10.8267C3.37012 8.59459 4.48941 6.55348 6.21379 5.10609C7.93817 3.6587 10.1424 2.91017 12.3916 3.00817C14.6408 3.10618 16.7715 4.0436 18.3635 5.63549C19.9555 7.22738 20.893 9.35811 20.9911 11.6073C21.0892 13.8565 20.3407 16.0607 18.8934 17.7852C17.4461 19.5096 15.405 20.629 13.1729 20.9224C10.9408 21.2159 8.67976 20.6621 6.83591 19.3703L3.99864 20.0008L4.62912 17.1636Z" stroke="#1B325A" stroke-width="1.5" stroke-linecap="round" stroke-linejoin="round"/>
</svg>
