<svg width="24" height="24" viewBox="0 0 24 24" fill="none" xmlns="http://www.w3.org/2000/svg">
<path d="M8 7H12" stroke="#1B325A" stroke-width="1.5" stroke-linecap="round" stroke-linejoin="round"/>
<path d="M8 11H12" stroke="#1B325A" stroke-width="1.5" stroke-linecap="round" stroke-linejoin="round"/>
<path d="M8 15H12" stroke="#1B325A" stroke-width="1.5" stroke-linecap="round" stroke-linejoin="round"/>
<path d="M11.776 20.888L8.447 19.223C8.165 19.082 7.834 19.082 7.553 19.223L4.724 20.638C4.391 20.804 4 20.563 4 20.191V4C4 3.448 4.448 3 5 3H19C19.552 3 20 3.448 20 4V20.191C20 20.563 19.609 20.804 19.276 20.638L16.447 19.223C16.165 19.082 15.834 19.082 15.553 19.223L12.224 20.888C12.083 20.959 11.917 20.959 11.776 20.888V20.888Z" stroke="#1B325A" stroke-width="1.5" stroke-linecap="round" stroke-linejoin="round"/>
<path d="M16.0001 6.98999C15.9971 6.98999 15.9951 6.99199 15.9951 6.99499C15.9951 6.99799 15.9971 6.99999 16.0001 6.99999C16.0031 6.99999 16.0051 6.99799 16.0051 6.99499C16.0051 6.99199 16.0031 6.98999 16.0001 6.98999" stroke="#1B325A" stroke-width="1.5" stroke-linecap="round" stroke-linejoin="round"/>
<path d="M16.0001 10.99C15.9971 10.99 15.9951 10.992 15.9951 10.995C15.9951 10.998 15.9971 11 16.0001 11C16.0031 11 16.0051 10.998 16.0051 10.995C16.0051 10.992 16.0031 10.99 16.0001 10.99" stroke="#1B325A" stroke-width="1.5" stroke-linecap="round" stroke-linejoin="round"/>
<path d="M16.0001 14.99C15.9971 14.99 15.9951 14.992 15.9951 14.995C15.9951 14.998 15.9971 15 16.0001 15C16.0031 15 16.0051 14.998 16.0051 14.995C16.0051 14.992 16.0031 14.99 16.0001 14.99" stroke="#1B325A" stroke-width="1.5" stroke-linecap="round" stroke-linejoin="round"/>
</svg>
