<svg xmlns="http://www.w3.org/2000/svg" width="24" height="24" viewBox="0 0 24 24" fill="none">
<path d="M21 7H22" stroke="#1B325A" stroke-width="1.5" stroke-linecap="round" stroke-linejoin="round"/>
<path d="M20 4H22" stroke="#1B325A" stroke-width="1.5" stroke-linecap="round" stroke-linejoin="round"/>
<path fill-rule="evenodd" clip-rule="evenodd" d="M6.56195 16H17.1499C18.7579 16 19.9109 14.45 19.4489 12.91L17.2889 5.71C16.9839 4.695 16.0499 4 14.9899 4H4.40095C2.79295 4 1.63995 5.55 2.10195 7.09L4.26195 14.29C4.56695 15.305 5.50195 16 6.56195 16Z" stroke="#1B325A" stroke-width="1.5" stroke-linecap="round" stroke-linejoin="round"/>
<path d="M19.2598 14.7198L12.2998 10.0898" stroke="#1B325A" stroke-width="1.5" stroke-linecap="round" stroke-linejoin="round"/>
<path d="M9.79004 10.0508L4.72004 15.1208" stroke="#1B325A" stroke-width="1.5" stroke-linecap="round" stroke-linejoin="round"/>
<path d="M7 20H21" stroke="#1B325A" stroke-width="1.5" stroke-linecap="round" stroke-linejoin="round"/>
<path d="M16.8018 4.83594L11.9988 10.4399C11.6748 10.8179 11.1228 10.8999 10.7028 10.6329L2.29076 5.28494" stroke="#1B325A" stroke-width="1.5" stroke-linecap="round" stroke-linejoin="round"/>
</svg>