<svg width="24" height="24" viewBox="0 0 24 24" fill="none" xmlns="http://www.w3.org/2000/svg">
<path d="M1.5 11.25L3 9.75L4.5 11.25" stroke="#1B325A" stroke-width="1.5" stroke-linecap="round" stroke-linejoin="round"/>
<path d="M22.5 12.75L21 14.25L19.5 12.75" stroke="#1B325A" stroke-width="1.5" stroke-linecap="round" stroke-linejoin="round"/>
<path d="M4.67822 6.79C6.31022 4.501 8.97522 3 12.0002 3C16.9702 3 21.0002 7.03 21.0002 12C21.0002 12.684 20.9172 13.348 20.7732 13.988" stroke="#1B325A" stroke-width="1.5" stroke-linecap="round" stroke-linejoin="round"/>
<path d="M19.3222 6.79004C17.0202 7.56404 14.5632 8.00004 12.0002 8.00004C9.43722 8.00004 6.98022 7.56404 4.67822 6.79004" stroke="#1B325A" stroke-width="1.5" stroke-linecap="round" stroke-linejoin="round"/>
<path d="M19.3181 17.2061C17.6871 19.4951 15.0221 20.9961 11.9961 20.9961C7.02609 20.9961 2.99609 16.9661 2.99609 11.9961C2.99609 11.3121 3.07909 10.6481 3.22309 10.0081" stroke="#1B325A" stroke-width="1.5" stroke-linecap="round" stroke-linejoin="round"/>
<path d="M4.6748 17.206C6.9768 16.432 9.4338 15.996 11.9968 15.996C14.5598 15.996 17.0168 16.432 19.3188 17.206" stroke="#1B325A" stroke-width="1.5" stroke-linecap="round" stroke-linejoin="round"/>
<path d="M14.6517 5.63604C16.1161 9.15076 16.1161 14.8492 14.6517 18.3639C13.1872 21.8787 10.8128 21.8787 9.34835 18.3639C7.88388 14.8492 7.88388 9.15074 9.34835 5.63604C10.8128 2.12132 13.1872 2.12132 14.6517 5.63604" stroke="#1B325A" stroke-width="1.5" stroke-linecap="round" stroke-linejoin="round"/>
</svg>
