<svg xmlns="http://www.w3.org/2000/svg" viewBox="0 0 100.01 100.01"><defs><style>.cls-1,.cls-3{fill:#fff;}.cls-1{opacity:0;}.cls-2{fill:#26a17b;}.cls-3{fill-rule:evenodd;}.cls-4{opacity:0.1;}</style></defs><g id="usdt"><rect class="cls-1" width="100" height="100"/><circle id="b" class="cls-2" cx="50" cy="50" r="50"/><path id="e" class="cls-3" d="M56.41,54.61h0c-.37,0-2.26.14-6.47.14-3.37,0-5.74-.1-6.57-.14h0c-13-.57-22.64-2.83-22.64-5.53s9.68-5,22.64-5.53v8.81c.84.06,3.27.2,6.62.2,4,0,6-.16,6.42-.2V43.56C69.34,44.14,79,46.4,79,49.09S69.34,54,56.41,54.61m0-12V34.76h18v-12H25.32v12h18v7.88c-14.67.68-25.7,3.58-25.7,7.06s11,6.39,25.7,7.06V82h13V56.76c14.64-.68,25.65-3.58,25.65-7.06s-11-6.38-25.65-7.05"/><g class="cls-4"><path d="M50,3.05A47,47,0,1,1,3,50,47,47,0,0,1,50,3.05m0-3a50,50,0,1,0,50,50A50,50,0,0,0,50,.05Z"/></g></g></svg>