<svg width="32" height="32" viewBox="0 0 32 32" fill="none" xmlns="http://www.w3.org/2000/svg">
<path d="M30 17.8679C30 18.8113 29.7925 19.717 29.3962 20.5283C29.2642 20.7925 29.2642 21.1132 29.3962 21.3774C29.7736 22.1698 30 23.0566 30 24C30 27.3208 27.3208 30 24 30H8C4.67924 30 2 27.3208 2 24C2 23.0566 2.22641 22.1698 2.60377 21.3774C2.73585 21.1132 2.73585 20.7925 2.60377 20.5283C2.22641 19.717 2 18.8302 2 17.8679C2 16.6067 2.37561 15.4582 3.0144 14.4785L3.01867 14.4717C3.66018 13.4906 3.99981 12.3396 3.99981 11.1698V11.1509C3.99981 7.80772 6.66921 5.08614 9.99222 5.00201C10.0449 5.00067 10.0977 5 10.1507 5C10.4904 5 10.8111 4.83019 10.9998 4.56604C12.113 3.01887 13.9432 2 15.9998 2C18.0564 2 19.8868 3.01887 21 4.56604C21.1887 4.84906 21.5094 5 21.8491 5C25.2453 5 28 7.75472 28 11.1509V11.1698C28 12.3396 28.3396 13.4906 28.9811 14.4717L28.9849 14.4775C29.1907 14.7777 29.3593 15.0965 29.5092 15.434H29.4993C29.8207 16.1792 30 16.9966 30 17.8679Z" fill="#212121"/>
<path d="M28.0008 17.9C28.0008 19.5569 26.6576 20.9 25.0008 20.9C23.3439 20.9 22.0008 19.5569 22.0008 17.9C22.0008 16.2432 23.3439 14.9 25.0008 14.9C26.6576 14.9 28.0008 16.2432 28.0008 17.9Z" fill="#F4C6AD"/>
<path d="M10.3008 18C10.3008 19.6569 8.95764 21 7.30078 21C5.64393 21 4.30078 19.6569 4.30078 18C4.30078 16.3432 5.64393 15 7.30078 15C8.95764 15 10.3008 16.3432 10.3008 18Z" fill="#F4C6AD"/>
<path d="M6.51528 15.5458H6.53824L6.51912 15.0512L6.5 14.4805C6.53824 12.7114 7.57068 12.0266 8.01042 11.7984C8.0391 11.7888 8.07256 11.7746 8.10602 11.7603C8.13947 11.746 8.17293 11.7318 8.20161 11.7223C9.19581 11.2657 9.99882 10.4668 10.4194 9.42053L10.5724 9.05911C10.7253 8.69768 11.2033 8.64061 11.4328 8.96399C12.7711 10.9233 15.0081 12.0837 17.3788 12.0837H23.3823C23.718 12.0837 25.3999 12.2466 25.5 14.5675L25.2786 20.018C25.0487 25.2431 20.9684 28.7516 15.9878 28.7516C11.0071 28.7516 6.92683 25.2431 6.69695 20.018L6.51528 15.5458Z" fill="#FFD7C2"/>
<path d="M15.2872 17.5266L14.2963 20.6961C14.0941 21.348 14.5794 22 15.2669 22H16.7331C17.4206 22 17.9059 21.338 17.7037 20.6961L16.7128 17.5266C16.5005 16.8245 15.5096 16.8245 15.2872 17.5266Z" fill="#E5AF93"/>
<path d="M16 23.3954C15.0538 23.3954 14.1644 23.1727 13.417 22.7831C13.1615 22.6532 12.8871 22.9408 13.048 23.1727C13.6724 24.1191 14.7605 24.75 16 24.75C17.2395 24.75 18.3276 24.1191 18.952 23.1727C19.1129 22.9315 18.8385 22.6532 18.583 22.7831C17.8356 23.1727 16.9556 23.3954 16 23.3954Z" fill="#990838"/>
<path d="M10.9996 15.4C11.9996 15.4 13.0246 16.2 13.5246 17C12.9258 17.1843 12.3695 17.3261 11.8262 17.4645C11.1901 17.6267 10.5719 17.7843 9.92462 18L8.9246 17.3C8.5246 17 8.42462 16.5 9.0246 16.1C9.6246 15.6 10.2996 15.4 10.9996 15.4Z" fill="black"/>
<path d="M21.1996 15.4C20.1996 15.4 19.1746 16.2 18.6746 17C19.2734 17.1843 19.8298 17.3261 20.373 17.4645C21.0092 17.6267 21.6273 17.7843 22.2746 18L23.2746 17.3C23.6746 17 23.7746 16.5 23.1746 16.1C22.5746 15.6 21.8996 15.4 21.1996 15.4Z" fill="black"/>
<path d="M9.01481 17.3673C9.30113 16.2403 10.3279 15.4 11.5423 15.4C12.8061 15.4 13.8625 16.2996 14.0994 17.4958C14.1488 17.7628 13.9415 18 13.6749 18H9.51834C9.18266 18 8.93583 17.6936 9.01481 17.3673Z" fill="white"/>
<path d="M22.9852 17.3673C22.6989 16.2403 21.6721 15.4 20.4577 15.4C19.1841 15.4 18.1375 16.2996 17.9006 17.4958C17.8512 17.7628 18.0585 18 18.3251 18H22.4817C22.8173 18 23.0642 17.6936 22.9852 17.3673Z" fill="white"/>
<path d="M10.2578 17.5568C10.2578 16.6311 11.0082 15.8925 11.9264 15.8925C12.8446 15.8925 13.585 16.6311 13.585 17.5568C13.585 17.7144 13.5653 17.8622 13.5258 18H10.3171C10.2776 17.8523 10.2578 17.7144 10.2578 17.5568Z" fill="#7D4533"/>
<path d="M21.7402 17.5568C21.7402 16.6311 20.9899 15.8925 20.0717 15.8925C19.1535 15.8925 18.4031 16.6311 18.413 17.5568C18.413 17.7144 18.4327 17.8622 18.4722 18H21.681C21.7205 17.8523 21.7402 17.7144 21.7402 17.5568Z" fill="#7D4533"/>
<path d="M11.9283 16.6113C12.4516 16.6113 12.8761 17.0348 12.8761 17.5568C12.8761 17.7144 12.8366 17.8621 12.7675 18H11.0891C11.02 17.8621 10.9805 17.7144 10.9805 17.5568C10.9805 17.0348 11.405 16.6113 11.9283 16.6113Z" fill="black"/>
<path d="M20.0637 16.6113C19.5404 16.6113 19.1158 17.0348 19.1158 17.5568C19.1158 17.7144 19.1553 17.8621 19.2244 18H20.9029C20.972 17.8621 21.0115 17.7144 21.0115 17.5568C21.0115 17.0348 20.5869 16.6113 20.0637 16.6113Z" fill="black"/>
<path d="M11.651 16.92C11.651 17.0857 11.5184 17.22 11.3548 17.22C11.1912 17.22 11.0586 17.0857 11.0586 16.92C11.0586 16.7543 11.1912 16.62 11.3548 16.62C11.5184 16.62 11.651 16.7543 11.651 16.92Z" fill="white"/>
<path d="M19.8456 16.92C19.8456 17.0857 19.713 17.22 19.5494 17.22C19.3858 17.22 19.2532 17.0857 19.2532 16.92C19.2532 16.7543 19.3858 16.62 19.5494 16.62C19.713 16.62 19.8456 16.7543 19.8456 16.92Z" fill="white"/>
<path d="M9.6659 14.5853L9.65771 14.59C9.42096 14.7319 9.11374 14.6552 8.97172 14.4185C8.82965 14.1817 8.90643 13.8746 9.14322 13.7325L9.14458 13.7317L9.1465 13.7305L9.15201 13.7273L9.16956 13.7171C9.18412 13.7088 9.20439 13.6974 9.23004 13.6835C9.2813 13.6558 9.35424 13.6178 9.44627 13.5739C9.62998 13.4864 9.89184 13.3742 10.2109 13.2724C10.8446 13.0702 11.7308 12.9 12.6874 13.0688C12.9593 13.1168 13.1408 13.3762 13.0929 13.6481C13.0449 13.9201 12.7855 14.1016 12.5136 14.0536C11.7702 13.9224 11.0563 14.0523 10.515 14.2251C10.2466 14.3107 10.0272 14.4048 9.87653 14.4767C9.80138 14.5125 9.74385 14.5425 9.70644 14.5628C9.68775 14.5729 9.67413 14.5806 9.6659 14.5853Z" fill="#212121"/>
<path d="M22.8574 13.7323L22.8564 13.7317L22.8544 13.7305L22.8489 13.7273L22.8314 13.7171C22.8168 13.7088 22.7965 13.6974 22.7709 13.6835C22.7196 13.6558 22.6467 13.6178 22.5547 13.5739C22.3709 13.4864 22.1091 13.3742 21.79 13.2724C21.1563 13.0702 20.2702 12.9 19.3136 13.0688C19.0416 13.1168 18.8601 13.3762 18.9081 13.6481C18.9561 13.9201 19.2154 14.1016 19.4874 14.0536C20.2308 13.9224 20.9446 14.0523 21.4859 14.2251C21.7543 14.3107 21.9737 14.4048 22.1244 14.4767C22.1996 14.5125 22.2571 14.5425 22.2945 14.5628C22.3132 14.5729 22.3268 14.5806 22.335 14.5853L22.3433 14.59L22.3442 14.5906C22.5808 14.7318 22.8873 14.655 23.0292 14.4185C23.1713 14.1817 23.0942 13.8744 22.8574 13.7323Z" fill="#212121"/>
</svg>
